<mxfile host="app.diagrams.net" modified="2024-03-27T10:03:58.882Z" agent="Mozilla/5.0 (Macintosh; Intel Mac OS X 10_15_7) AppleWebKit/605.1.15 (KHTML, like Gecko) Version/17.0 Safari/605.1.15" version="24.0.6" etag="-hwYIT6c7dY3NDhzc8Yr" type="github">
  <diagram name="Page-1" id="pqYsJjLV0sjG2vcuNIHi">
    <mxGraphModel>
      <root>
        <mxCell id="0" />
        <mxCell id="1" parent="0" />
      </root>
    </mxGraphModel>
  </diagram>
</mxfile>
